<svg version="1.1" id="Layer_1" xmlns="http://www.w3.org/2000/svg" xmlns:xlink="http://www.w3.org/1999/xlink" x="0px" y="0px"
	 width="100%" viewBox="0 0 500 500" enable-background="new 0 0 500 500" xml:space="preserve">
<path fill="#000000" opacity="1.000000" stroke="none" 
	d="
M274.000000,501.000000 
	C182.666687,501.000000 91.833374,501.000000 1.000049,501.000000 
	C1.000032,334.333405 1.000032,167.666794 1.000016,1.000138 
	C167.666565,1.000092 334.333130,1.000092 500.999756,1.000046 
	C500.999847,167.666519 500.999847,334.333038 500.999939,500.999786 
	C425.500000,501.000000 350.000000,501.000000 274.000000,501.000000 
M129.747192,278.218506 
	C141.634659,255.267212 138.450256,230.888947 121.131897,212.264099 
	C105.543304,195.499542 80.257660,190.385056 58.774437,199.651169 
	C36.311649,209.339783 22.790653,232.205963 25.101267,256.597931 
	C27.329340,280.118561 45.380077,300.533813 68.419373,305.590454 
	C92.810684,310.943756 116.866554,300.363007 129.747192,278.218506 
M306.432220,247.323746 
	C299.995697,247.323746 293.559143,247.323746 286.757416,247.323746 
	C286.757416,242.851990 286.816742,238.887787 286.738129,234.926331 
	C286.678131,231.902725 287.439301,229.710846 290.943085,229.333023 
	C291.660400,229.255692 292.287109,228.338074 292.955566,227.807800 
	C292.114105,227.298950 291.284241,226.373672 290.429260,226.349838 
	C285.436737,226.210739 280.436523,226.216644 275.443787,226.352982 
	C274.669678,226.374115 273.920746,227.318481 272.180756,228.502182 
	C276.811768,229.559448 280.068542,230.250992 279.920013,235.099960 
	C279.609131,245.249878 279.830963,255.415939 279.819061,265.575348 
	C279.815582,268.521057 279.032166,270.781738 275.488190,271.109589 
	C274.642365,271.187836 273.891357,272.291199 272.036041,273.766541 
	C280.043121,273.766541 286.447235,273.766541 292.851349,273.766541 
	C292.338196,272.132751 291.232574,271.701721 290.423584,270.950958 
	C289.114960,269.736481 287.082489,268.384857 286.969666,266.963074 
	C286.555206,261.739410 286.805298,256.463013 286.805298,251.303284 
	C294.239624,251.303284 301.123230,251.303284 308.082245,251.303284 
	C308.082245,256.491608 308.413971,261.353973 307.907135,266.127350 
	C307.723022,267.861115 305.612518,269.450623 304.233795,270.972626 
	C303.511261,271.770233 302.470306,272.279388 300.506012,273.679321 
	C308.485168,273.679321 314.854675,273.679321 321.681671,273.679321 
	C321.130737,272.538483 320.808228,271.278625 320.478668,271.276764 
	C315.201874,271.247223 314.901825,267.882446 314.970032,263.803345 
	C315.126007,254.479279 315.071442,245.150360 314.991638,235.824371 
	C314.963562,232.540543 315.318329,229.807053 319.402161,229.319458 
	C320.075165,229.239105 320.635590,228.215729 321.248047,227.628174 
	C320.503204,227.178802 319.767426,226.358810 319.012054,226.340332 
	C314.185059,226.222214 309.351685,226.208145 304.525757,226.346466 
	C303.646851,226.371674 302.792511,227.255920 301.926849,227.743607 
	C302.740875,228.326065 303.607391,228.848541 304.357147,229.504471 
	C305.614471,230.604446 307.780975,231.742737 307.838196,232.946945 
	C308.063293,237.686295 307.615112,242.457611 306.432220,247.323746 
M184.503738,251.974792 
	C181.746185,251.974792 178.988617,251.974792 175.731583,251.974792 
	C178.125137,254.928833 180.881409,257.006378 181.691727,259.674866 
	C182.646408,262.818787 181.915588,266.474579 181.915588,269.756836 
	C169.304657,272.848206 160.901825,268.608917 159.300766,258.077606 
	C158.511673,252.887238 158.623230,247.417282 159.258621,242.186981 
	C160.176453,234.631638 164.497070,230.617096 171.348907,229.652374 
	C177.863220,228.735138 179.699615,229.955643 184.341202,239.026749 
	C186.099670,236.967682 188.843964,235.141754 188.697495,233.588379 
	C188.496674,231.458542 186.472717,228.363861 184.572800,227.763809 
	C180.409012,226.448807 175.811279,225.863480 171.427444,226.018387 
	C161.048340,226.385178 154.073959,232.782623 151.740997,243.244431 
	C149.015686,255.465683 153.004410,267.192078 161.598969,271.865295 
	C163.324310,272.803436 165.277039,273.807892 167.159485,273.880005 
	C172.424088,274.081726 177.726898,274.064514 182.976120,273.648132 
	C187.325989,273.303131 189.583649,271.112915 188.992050,266.073669 
	C188.452087,261.474152 187.395706,256.102692 193.572083,253.708481 
	C193.691971,253.662003 193.501602,252.815170 193.420624,251.974792 
	C190.741699,251.974792 188.097305,251.974792 184.503738,251.974792 
M427.160889,237.818268 
	C421.858765,238.338608 418.032959,241.499863 417.376678,246.352966 
	C416.504425,252.803452 416.260223,259.619781 417.395111,265.984955 
	C418.630829,272.915619 425.956421,276.414795 432.568085,274.160797 
	C435.211914,273.259491 437.447906,271.161926 439.810760,269.646606 
	C440.119568,270.855377 440.510651,272.386353 440.851685,273.721283 
	C444.746643,273.721283 448.318634,273.721283 452.536743,273.721283 
	C451.757202,272.507996 451.324432,271.206238 450.848053,271.190033 
	C445.980316,271.024841 445.935760,267.752808 445.969971,264.189728 
	C446.045013,256.371246 445.993164,248.551575 445.993134,240.732391 
	C445.993134,234.984146 445.993164,229.235901 445.993164,223.226959 
	C442.173187,223.226959 439.030151,223.139450 435.898712,223.291046 
	C435.154938,223.327057 434.393921,224.105652 433.783936,224.691605 
	C433.686066,224.785645 434.311951,226.091187 434.655029,226.115829 
	C438.445953,226.388123 439.826508,228.518692 439.704498,232.098846 
	C439.603851,235.053467 439.683929,238.014252 439.683929,240.197662 
	C435.122162,239.238037 431.530518,238.482498 427.160889,237.818268 
M408.689056,250.031082 
	C406.524323,241.473694 403.057098,238.088791 396.022064,237.664764 
	C388.906525,237.235901 383.152740,240.167770 381.807373,246.711395 
	C380.612000,252.525421 380.256897,259.027588 381.609344,264.733368 
	C383.827728,274.092499 396.521942,277.979492 404.329193,272.325317 
	C405.917084,271.175354 406.590088,268.762085 407.684875,266.931183 
	C407.267242,266.580963 406.849640,266.230743 406.432007,265.880524 
	C401.992798,269.953461 396.957153,272.048859 391.538544,268.905823 
	C387.202026,266.390442 386.793518,261.775024 386.953247,256.701508 
	C394.355652,256.701508 401.438782,256.701508 408.790680,256.701508 
	C408.790680,254.460281 408.790680,252.670609 408.689056,250.031082 
M211.091125,274.547424 
	C214.936005,273.848236 218.940887,273.595032 222.569595,272.293213 
	C224.994095,271.423462 226.742462,269.023071 224.491547,265.853455 
	C220.344513,270.118225 215.485184,271.746735 210.305054,269.194794 
	C205.536957,266.845856 205.125549,261.973755 205.068283,256.764313 
	C212.413132,256.764313 219.510010,256.764313 226.842300,256.764313 
	C226.918457,255.236511 227.035324,254.113937 227.020676,252.993088 
	C226.899887,243.749329 222.527405,238.336166 214.701157,237.703308 
	C205.744110,236.978989 200.089783,241.563354 198.869278,251.113724 
	C198.392563,254.844025 198.461807,258.783325 199.101639,262.485840 
	C200.176880,268.707825 203.761475,273.044952 211.091125,274.547424 
M364.112427,238.461899 
	C362.049561,239.786346 359.986694,241.110779 357.923798,242.435226 
	C358.304108,242.872360 358.684387,243.309494 359.064667,243.746643 
	C358.529694,241.902298 357.994720,240.057953 357.397034,237.997467 
	C353.921021,238.977493 350.040131,236.539017 346.166473,240.798752 
	C352.550690,241.034653 353.337433,244.278580 353.102417,248.656906 
	C352.808533,254.131912 352.978180,259.635345 353.051575,265.125122 
	C353.093506,268.261963 352.572876,270.751099 348.726868,271.147217 
	C348.127319,271.208954 347.659302,272.547333 346.888062,273.638214 
	C354.047150,273.638214 360.398102,273.638214 366.749084,273.638214 
	C366.858185,273.204590 366.967285,272.770996 367.076385,272.337372 
	C365.846863,271.898376 364.453491,271.690918 363.427246,270.964722 
	C361.981842,269.941895 359.695953,268.526764 359.704620,267.292999 
	C359.751129,260.689392 360.034912,254.032913 361.056244,247.523285 
	C361.371552,245.513611 364.263184,243.908157 365.975220,242.117615 
	C367.434723,243.584213 368.894257,245.050797 370.951324,247.117859 
	C373.319641,247.324768 376.011139,245.788422 375.457977,242.487961 
	C375.153564,240.671616 372.269958,238.879898 370.165131,237.913513 
	C368.714172,237.247314 366.605042,238.014771 364.112427,238.461899 
M243.017273,237.373657 
	C243.017273,234.967316 243.017273,232.560974 243.017273,230.154633 
	C242.378738,229.942398 241.740189,229.730148 241.101654,229.517914 
	C239.952255,231.657196 239.135284,234.091995 237.565628,235.857666 
	C235.781067,237.865128 233.323883,239.274612 230.384888,241.541061 
	C233.047195,241.950134 234.591446,242.187424 236.320557,242.453110 
	C236.390656,243.419601 236.489975,244.221100 236.500580,245.023788 
	C236.597198,252.344635 236.366425,259.686676 236.856705,266.980469 
	C237.297974,273.545380 246.447189,277.527802 251.682541,273.678253 
	C252.180801,273.311890 251.947296,271.950317 252.074036,270.876892 
	C247.792480,271.169647 243.357483,271.637695 243.111771,266.128113 
	C242.758881,258.214600 243.021713,250.273605 243.021713,241.990967 
	C246.139389,241.990967 248.740479,241.990967 251.341553,241.990967 
	C251.620316,241.552734 251.899094,241.114517 252.177856,240.676285 
	C251.163040,239.827133 250.262131,238.526291 249.106659,238.234863 
	C247.379395,237.799286 245.472977,238.074051 243.017273,237.373657 
M329.972870,270.438538 
	C328.358154,271.094116 326.743408,271.749695 325.128693,272.405273 
	C325.287292,272.862366 325.445892,273.319427 325.604523,273.776489 
	C331.845337,273.776489 338.086151,273.776489 344.872040,273.776489 
	C344.252716,272.654449 343.852570,271.267365 343.427368,271.259644 
	C338.024200,271.161499 338.058319,267.492401 338.088440,263.621918 
	C338.153839,255.221146 338.108612,246.819534 338.108612,238.145660 
	C334.352570,238.145660 331.221832,238.086212 328.096863,238.194290 
	C327.447968,238.216721 326.820526,238.860352 326.183197,239.217697 
	C326.689392,239.869949 327.114044,240.994339 327.714996,241.098145 
	C331.748291,241.794952 331.950378,244.658463 331.896210,247.839172 
	C331.828369,251.823029 332.036835,255.816971 331.832703,259.791504 
	C331.657867,263.195892 331.069672,266.579071 329.972870,270.438538 
M467.909271,232.561203 
	C467.909271,230.614777 467.909271,228.668350 467.909271,226.671417 
	C465.281311,226.671417 462.934357,226.671417 460.395416,226.671417 
	C461.108856,237.325546 461.748138,247.573990 462.553436,257.809387 
	C462.633698,258.829407 463.724457,259.769928 464.346252,260.747345 
	C464.919373,259.770966 465.909332,258.831543 465.999664,257.812347 
	C466.716675,249.721344 467.262726,241.615189 467.909271,232.561203 
M460.270782,271.860046 
	C463.440857,275.369324 467.166687,275.379913 468.118195,271.721436 
	C468.518616,270.181732 468.288147,267.811218 467.320312,266.774384 
	C466.397278,265.785583 463.502747,265.235138 462.620697,265.935333 
	C461.264709,267.011749 460.888672,269.322662 460.270782,271.860046 
M333.700470,231.625443 
	C335.323547,230.447845 337.441376,229.556671 338.359467,227.970917 
	C338.813477,227.186691 337.391357,224.385483 336.204865,223.846283 
	C335.038513,223.316223 331.727417,224.488770 331.725647,224.924011 
	C331.716797,227.051590 332.499634,229.182449 333.700470,231.625443 
z"/>
<path fill="#FCFCFC" opacity="1.000000" stroke="none" 
	d="
M129.527481,278.513916 
	C116.866554,300.363007 92.810684,310.943756 68.419373,305.590454 
	C45.380077,300.533813 27.329340,280.118561 25.101267,256.597931 
	C22.790653,232.205963 36.311649,209.339783 58.774437,199.651169 
	C80.257660,190.385056 105.543304,195.499542 121.131897,212.264099 
	C138.450256,230.888947 141.634659,255.267212 129.527481,278.513916 
M58.153984,225.685928 
	C49.076324,237.252136 48.542484,250.124695 52.739449,263.512726 
	C55.524818,272.397919 61.871769,278.082642 70.633530,280.900269 
	C79.762161,283.835876 89.006523,283.527222 98.213577,281.079285 
	C106.928307,278.762238 106.925209,278.751129 106.925552,269.965454 
	C106.925636,267.799744 107.009125,265.630280 106.910866,263.469055 
	C106.703468,258.907532 107.790283,255.431747 113.607018,255.811295 
	C113.456505,253.915237 113.346199,252.525604 113.241539,251.207214 
	C103.548615,251.207214 94.275032,251.207214 84.810989,251.207214 
	C84.810989,252.856461 84.810989,254.288956 84.810989,255.802765 
	C88.437920,256.061401 91.961525,256.444519 92.110115,260.989655 
	C92.271782,265.935120 92.146805,270.889984 92.146805,275.749451 
	C77.554359,278.866211 69.053139,273.437561 66.693314,259.173889 
	C65.078827,249.415298 64.940811,239.532806 69.131584,230.229813 
	C72.077011,223.691330 78.897675,220.282364 86.007347,221.257721 
	C91.932915,222.070633 94.177124,224.736115 96.008026,233.075378 
	C96.064636,233.333221 96.446495,233.519653 96.694351,233.756195 
	C103.771599,232.988983 107.305641,230.669815 107.715736,226.502396 
	C108.111328,222.482498 104.627518,218.562897 98.283752,217.071518 
	C83.902397,213.690582 70.140678,214.085739 58.153984,225.685928 
z"/>
<path fill="#F0F0F0" opacity="1.000000" stroke="none" 
	d="
M306.924561,247.270416 
	C307.615112,242.457611 308.063293,237.686295 307.838196,232.946945 
	C307.780975,231.742737 305.614471,230.604446 304.357147,229.504471 
	C303.607391,228.848541 302.740875,228.326065 301.926849,227.743607 
	C302.792511,227.255920 303.646851,226.371674 304.525757,226.346466 
	C309.351685,226.208145 314.185059,226.222214 319.012054,226.340332 
	C319.767426,226.358810 320.503204,227.178802 321.248047,227.628174 
	C320.635590,228.215729 320.075165,229.239105 319.402161,229.319458 
	C315.318329,229.807053 314.963562,232.540543 314.991638,235.824371 
	C315.071442,245.150360 315.126007,254.479279 314.970032,263.803345 
	C314.901825,267.882446 315.201874,271.247223 320.478668,271.276764 
	C320.808228,271.278625 321.130737,272.538483 321.681671,273.679321 
	C314.854675,273.679321 308.485168,273.679321 300.506012,273.679321 
	C302.470306,272.279388 303.511261,271.770233 304.233795,270.972626 
	C305.612518,269.450623 307.723022,267.861115 307.907135,266.127350 
	C308.413971,261.353973 308.082245,256.491608 308.082245,251.303284 
	C301.123230,251.303284 294.239624,251.303284 286.805298,251.303284 
	C286.805298,256.463013 286.555206,261.739410 286.969666,266.963074 
	C287.082489,268.384857 289.114960,269.736481 290.423584,270.950958 
	C291.232574,271.701721 292.338196,272.132751 292.851349,273.766541 
	C286.447235,273.766541 280.043121,273.766541 272.036041,273.766541 
	C273.891357,272.291199 274.642365,271.187836 275.488190,271.109589 
	C279.032166,270.781738 279.815582,268.521057 279.819061,265.575348 
	C279.830963,255.415939 279.609131,245.249878 279.920013,235.099960 
	C280.068542,230.250992 276.811768,229.559448 272.180756,228.502182 
	C273.920746,227.318481 274.669678,226.374115 275.443787,226.352982 
	C280.436523,226.216644 285.436737,226.210739 290.429260,226.349838 
	C291.284241,226.373672 292.114105,227.298950 292.955566,227.807800 
	C292.287109,228.338074 291.660400,229.255692 290.943085,229.333023 
	C287.439301,229.710846 286.678131,231.902725 286.738129,234.926331 
	C286.816742,238.887787 286.757416,242.851990 286.757416,247.323746 
	C293.559143,247.323746 299.995697,247.323746 306.924561,247.270416 
z"/>
<path fill="#F1F1F1" opacity="1.000000" stroke="none" 
	d="
M184.978333,251.974792 
	C188.097305,251.974792 190.741699,251.974792 193.420624,251.974792 
	C193.501602,252.815170 193.691971,253.662003 193.572083,253.708481 
	C187.395706,256.102692 188.452087,261.474152 188.992050,266.073669 
	C189.583649,271.112915 187.325989,273.303131 182.976120,273.648132 
	C177.726898,274.064514 172.424088,274.081726 167.159485,273.880005 
	C165.277039,273.807892 163.324310,272.803436 161.598969,271.865295 
	C153.004410,267.192078 149.015686,255.465683 151.740997,243.244431 
	C154.073959,232.782623 161.048340,226.385178 171.427444,226.018387 
	C175.811279,225.863480 180.409012,226.448807 184.572800,227.763809 
	C186.472717,228.363861 188.496674,231.458542 188.697495,233.588379 
	C188.843964,235.141754 186.099670,236.967682 184.341202,239.026749 
	C179.699615,229.955643 177.863220,228.735138 171.348907,229.652374 
	C164.497070,230.617096 160.176453,234.631638 159.258621,242.186981 
	C158.623230,247.417282 158.511673,252.887238 159.300766,258.077606 
	C160.901825,268.608917 169.304657,272.848206 181.915588,269.756836 
	C181.915588,266.474579 182.646408,262.818787 181.691727,259.674866 
	C180.881409,257.006378 178.125137,254.928833 175.731583,251.974792 
	C178.988617,251.974792 181.746185,251.974792 184.978333,251.974792 
z"/>
<path fill="#F5F5F5" opacity="1.000000" stroke="none" 
	d="
M427.549896,237.772614 
	C431.530518,238.482498 435.122162,239.238037 439.683929,240.197662 
	C439.683929,238.014252 439.603851,235.053467 439.704498,232.098846 
	C439.826508,228.518692 438.445953,226.388123 434.655029,226.115829 
	C434.311951,226.091187 433.686066,224.785645 433.783936,224.691605 
	C434.393921,224.105652 435.154938,223.327057 435.898712,223.291046 
	C439.030151,223.139450 442.173187,223.226959 445.993164,223.226959 
	C445.993164,229.235901 445.993134,234.984146 445.993134,240.732391 
	C445.993164,248.551575 446.045013,256.371246 445.969971,264.189728 
	C445.935760,267.752808 445.980316,271.024841 450.848053,271.190033 
	C451.324432,271.206238 451.757202,272.507996 452.536743,273.721283 
	C448.318634,273.721283 444.746643,273.721283 440.851685,273.721283 
	C440.510651,272.386353 440.119568,270.855377 439.810760,269.646606 
	C437.447906,271.161926 435.211914,273.259491 432.568085,274.160797 
	C425.956421,276.414795 418.630829,272.915619 417.395111,265.984955 
	C416.260223,259.619781 416.504425,252.803452 417.376678,246.352966 
	C418.032959,241.499863 421.858765,238.338608 427.549896,237.772614 
M424.591278,245.288071 
	C424.113892,251.447250 423.099762,257.628052 423.346954,263.758026 
	C423.512909,267.872040 426.526733,270.423767 431.235260,270.226318 
	C435.840027,270.033173 438.460297,267.507629 438.907196,263.308167 
	C439.392548,258.748016 439.553314,254.025101 438.922974,249.503159 
	C437.864746,241.911377 431.142151,239.728119 424.591278,245.288071 
M439.897278,241.344498 
	C439.520416,241.458832 439.143555,241.573151 438.766693,241.687469 
	C439.138763,241.829041 439.510834,241.970596 439.897278,241.344498 
z"/>
<path fill="#F0F0F0" opacity="1.000000" stroke="none" 
	d="
M408.739868,250.456009 
	C408.790680,252.670609 408.790680,254.460281 408.790680,256.701508 
	C401.438782,256.701508 394.355652,256.701508 386.953247,256.701508 
	C386.793518,261.775024 387.202026,266.390442 391.538544,268.905823 
	C396.957153,272.048859 401.992798,269.953461 406.432007,265.880524 
	C406.849640,266.230743 407.267242,266.580963 407.684875,266.931183 
	C406.590088,268.762085 405.917084,271.175354 404.329193,272.325317 
	C396.521942,277.979492 383.827728,274.092499 381.609344,264.733368 
	C380.256897,259.027588 380.612000,252.525421 381.807373,246.711395 
	C383.152740,240.167770 388.906525,237.235901 396.022064,237.664764 
	C403.057098,238.088791 406.524323,241.473694 408.739868,250.456009 
M401.976440,251.673157 
	C401.707733,250.038742 401.508209,248.389236 401.155823,246.773071 
	C400.433319,243.459534 398.248291,240.866592 394.999268,241.518738 
	C392.495270,242.021332 389.949249,244.219620 388.280151,246.339645 
	C387.068573,247.878510 387.260193,250.522110 386.848083,252.564514 
	C392.299683,252.564514 397.086731,252.564514 401.976440,251.673157 
z"/>
<path fill="#EFEFEF" opacity="1.000000" stroke="none" 
	d="
M210.698334,274.443085 
	C203.761475,273.044952 200.176880,268.707825 199.101639,262.485840 
	C198.461807,258.783325 198.392563,254.844025 198.869278,251.113724 
	C200.089783,241.563354 205.744110,236.978989 214.701157,237.703308 
	C222.527405,238.336166 226.899887,243.749329 227.020676,252.993088 
	C227.035324,254.113937 226.918457,255.236511 226.842300,256.764313 
	C219.510010,256.764313 212.413132,256.764313 205.068283,256.764313 
	C205.125549,261.973755 205.536957,266.845856 210.305054,269.194794 
	C215.485184,271.746735 220.344513,270.118225 224.491547,265.853455 
	C226.742462,269.023071 224.994095,271.423462 222.569595,272.293213 
	C218.940887,273.595032 214.936005,273.848236 210.698334,274.443085 
M219.161697,252.951797 
	C218.622528,249.666351 218.706604,246.061951 217.262344,243.239685 
	C216.610596,241.966080 212.624374,241.360184 210.657272,242.002258 
	C205.690247,243.623535 205.760971,248.442520 205.048782,252.982666 
	C209.602509,252.982666 213.913742,252.982666 219.161697,252.951797 
z"/>
<path fill="#F4F4F4" opacity="1.000000" stroke="none" 
	d="
M364.451233,238.301697 
	C366.605042,238.014771 368.714172,237.247314 370.165131,237.913513 
	C372.269958,238.879898 375.153564,240.671616 375.457977,242.487961 
	C376.011139,245.788422 373.319641,247.324768 370.951324,247.117859 
	C368.894257,245.050797 367.434723,243.584213 365.975220,242.117615 
	C364.263184,243.908157 361.371552,245.513611 361.056244,247.523285 
	C360.034912,254.032913 359.751129,260.689392 359.704620,267.292999 
	C359.695953,268.526764 361.981842,269.941895 363.427246,270.964722 
	C364.453491,271.690918 365.846863,271.898376 367.076385,272.337372 
	C366.967285,272.770996 366.858185,273.204590 366.749084,273.638214 
	C360.398102,273.638214 354.047150,273.638214 346.888062,273.638214 
	C347.659302,272.547333 348.127319,271.208954 348.726868,271.147217 
	C352.572876,270.751099 353.093506,268.261963 353.051575,265.125122 
	C352.978180,259.635345 352.808533,254.131912 353.102417,248.656906 
	C353.337433,244.278580 352.550690,241.034653 346.166473,240.798752 
	C350.040131,236.539017 353.921021,238.977493 357.397034,237.997467 
	C357.994720,240.057953 358.529694,241.902298 359.064667,243.746643 
	C358.684387,243.309494 358.304108,242.872360 357.923798,242.435226 
	C359.986694,241.110779 362.049561,239.786346 364.451233,238.301697 
z"/>
<path fill="#F3F3F3" opacity="1.000000" stroke="none" 
	d="
M243.330017,237.710159 
	C245.472977,238.074051 247.379395,237.799286 249.106659,238.234863 
	C250.262131,238.526291 251.163040,239.827133 252.177856,240.676285 
	C251.899094,241.114517 251.620316,241.552734 251.341553,241.990967 
	C248.740479,241.990967 246.139389,241.990967 243.021713,241.990967 
	C243.021713,250.273605 242.758881,258.214600 243.111771,266.128113 
	C243.357483,271.637695 247.792480,271.169647 252.074036,270.876892 
	C251.947296,271.950317 252.180801,273.311890 251.682541,273.678253 
	C246.447189,277.527802 237.297974,273.545380 236.856705,266.980469 
	C236.366425,259.686676 236.597198,252.344635 236.500580,245.023788 
	C236.489975,244.221100 236.390656,243.419601 236.320557,242.453110 
	C234.591446,242.187424 233.047195,241.950134 230.384888,241.541061 
	C233.323883,239.274612 235.781067,237.865128 237.565628,235.857666 
	C239.135284,234.091995 239.952255,231.657196 241.101654,229.517914 
	C241.740189,229.730148 242.378738,229.942398 243.017273,230.154633 
	C243.017273,232.560974 243.017273,234.967316 243.330017,237.710159 
z"/>
<path fill="#F8F8F8" opacity="1.000000" stroke="none" 
	d="
M330.318604,270.205078 
	C331.069672,266.579071 331.657867,263.195892 331.832703,259.791504 
	C332.036835,255.816971 331.828369,251.823029 331.896210,247.839172 
	C331.950378,244.658463 331.748291,241.794952 327.714996,241.098145 
	C327.114044,240.994339 326.689392,239.869949 326.183197,239.217697 
	C326.820526,238.860352 327.447968,238.216721 328.096863,238.194290 
	C331.221832,238.086212 334.352570,238.145660 338.108612,238.145660 
	C338.108612,246.819534 338.153839,255.221146 338.088440,263.621918 
	C338.058319,267.492401 338.024200,271.161499 343.427368,271.259644 
	C343.852570,271.267365 344.252716,272.654449 344.872040,273.776489 
	C338.086151,273.776489 331.845337,273.776489 325.604523,273.776489 
	C325.445892,273.319427 325.287292,272.862366 325.128693,272.405273 
	C326.743408,271.749695 328.358154,271.094116 330.318604,270.205078 
z"/>
<path fill="#EEEEEE" opacity="1.000000" stroke="none" 
	d="
M467.885254,233.037445 
	C467.262726,241.615189 466.716675,249.721344 465.999664,257.812347 
	C465.909332,258.831543 464.919373,259.770966 464.346252,260.747345 
	C463.724457,259.769928 462.633698,258.829407 462.553436,257.809387 
	C461.748138,247.573990 461.108856,237.325546 460.395416,226.671417 
	C462.934357,226.671417 465.281311,226.671417 467.909271,226.671417 
	C467.909271,228.668350 467.909271,230.614777 467.885254,233.037445 
z"/>
<path fill="#EEEEEE" opacity="1.000000" stroke="none" 
	d="
M460.183807,271.484924 
	C460.888672,269.322662 461.264709,267.011749 462.620697,265.935333 
	C463.502747,265.235138 466.397278,265.785583 467.320312,266.774384 
	C468.288147,267.811218 468.518616,270.181732 468.118195,271.721436 
	C467.166687,275.379913 463.440857,275.369324 460.183807,271.484924 
z"/>
<path fill="#E6E6E6" opacity="1.000000" stroke="none" 
	d="
M333.351501,231.468811 
	C332.499634,229.182449 331.716797,227.051590 331.725647,224.924011 
	C331.727417,224.488770 335.038513,223.316223 336.204865,223.846283 
	C337.391357,224.385483 338.813477,227.186691 338.359467,227.970917 
	C337.441376,229.556671 335.323547,230.447845 333.351501,231.468811 
z"/>
<path fill="#070707" opacity="1.000000" stroke="none" 
	d="
M58.396366,225.423172 
	C70.140678,214.085739 83.902397,213.690582 98.283752,217.071518 
	C104.627518,218.562897 108.111328,222.482498 107.715736,226.502396 
	C107.305641,230.669815 103.771599,232.988983 96.694351,233.756195 
	C96.446495,233.519653 96.064636,233.333221 96.008026,233.075378 
	C94.177124,224.736115 91.932915,222.070633 86.007347,221.257721 
	C78.897675,220.282364 72.077011,223.691330 69.131584,230.229813 
	C64.940811,239.532806 65.078827,249.415298 66.693314,259.173889 
	C69.053139,273.437561 77.554359,278.866211 92.146805,275.749451 
	C92.146805,270.889984 92.271782,265.935120 92.110115,260.989655 
	C91.961525,256.444519 88.437920,256.061401 84.810989,255.802765 
	C84.810989,254.288956 84.810989,252.856461 84.810989,251.207214 
	C94.275032,251.207214 103.548615,251.207214 113.241539,251.207214 
	C113.346199,252.525604 113.456505,253.915237 113.607018,255.811295 
	C107.790283,255.431747 106.703468,258.907532 106.910866,263.469055 
	C107.009125,265.630280 106.925636,267.799744 106.925552,269.965454 
	C106.925209,278.751129 106.928307,278.762238 98.213577,281.079285 
	C89.006523,283.527222 79.762161,283.835876 70.633530,280.900269 
	C61.871769,278.082642 55.524818,272.397919 52.739449,263.512726 
	C48.542484,250.124695 49.076324,237.252136 58.396366,225.423172 
z"/>
<path fill="#060606" opacity="1.000000" stroke="none" 
	d="
M424.812805,244.955704 
	C431.142151,239.728119 437.864746,241.911377 438.922974,249.503159 
	C439.553314,254.025101 439.392548,258.748016 438.907196,263.308167 
	C438.460297,267.507629 435.840027,270.033173 431.235260,270.226318 
	C426.526733,270.423767 423.512909,267.872040 423.346954,263.758026 
	C423.099762,257.628052 424.113892,251.447250 424.812805,244.955704 
z"/>
<path fill="#000000" opacity="1.000000" stroke="none" 
	d="
M439.890076,241.728333 
	C439.510834,241.970596 439.138763,241.829041 438.766693,241.687469 
	C439.143555,241.573151 439.520416,241.458832 439.890076,241.728333 
z"/>
<path fill="#080808" opacity="1.000000" stroke="none" 
	d="
M401.925110,252.118835 
	C397.086731,252.564514 392.299683,252.564514 386.848083,252.564514 
	C387.260193,250.522110 387.068573,247.878510 388.280151,246.339645 
	C389.949249,244.219620 392.495270,242.021332 394.999268,241.518738 
	C398.248291,240.866592 400.433319,243.459534 401.155823,246.773071 
	C401.508209,248.389236 401.707733,250.038742 401.925110,252.118835 
z"/>
<path fill="#070707" opacity="1.000000" stroke="none" 
	d="
M218.693329,252.967224 
	C213.913742,252.982666 209.602509,252.982666 205.048782,252.982666 
	C205.760971,248.442520 205.690247,243.623535 210.657272,242.002258 
	C212.624374,241.360184 216.610596,241.966080 217.262344,243.239685 
	C218.706604,246.061951 218.622528,249.666351 218.693329,252.967224 
z"/>
</svg>